<?xml version="1.0" standalone="no"?>
<!DOCTYPE svg PUBLIC "-//W3C//DTD SVG 20010904//EN"
 "http://www.w3.org/TR/2001/REC-SVG-20010904/DTD/svg10.dtd">
<svg version="1.0" xmlns="http://www.w3.org/2000/svg"
 width="467.000000pt" height="371.000000pt" viewBox="0 0 467.000000 371.000000"
 preserveAspectRatio="xMidYMid meet">

<g transform="translate(0.000000,371.000000) scale(0.100000,-0.100000)"
fill="#000000" stroke="none">
<path d="M453 3489 c-40 -12 -57 -41 -50 -89 3 -23 120 -242 325 -608 l321
-572 3 -261 3 -261 33 -29 c32 -29 33 -29 157 -29 75 0 134 5 150 12 51 23 55
46 55 313 l0 246 326 576 c215 378 328 588 331 613 11 84 -36 104 -224 98
-104 -3 -127 -7 -150 -25 -18 -13 -105 -161 -249 -421 -121 -221 -222 -404
-225 -406 -2 -3 -101 173 -219 390 -118 217 -224 406 -235 420 -11 14 -37 29
-60 34 -51 12 -250 11 -292 -1z m529 -519 c130 -239 246 -450 256 -468 l19
-34 258 471 258 471 128 0 c71 0 129 -3 129 -6 0 -3 -147 -265 -327 -582
l-328 -577 -5 -260 -5 -260 -109 -3 c-81 -2 -112 1 -118 10 -4 7 -8 124 -8
261 l0 247 -325 580 c-179 318 -325 582 -325 585 0 3 60 4 133 3 l132 -3 237
-435z"/>
<path d="M2975 3490 c-49 -5 -114 -16 -143 -24 -63 -17 -150 -68 -191 -111
-45 -47 -99 -154 -121 -241 -51 -197 -54 -880 -5 -1081 53 -215 171 -336 371
-378 99 -21 769 -21 867 0 184 39 300 145 355 325 37 123 44 232 39 650 -5
438 -9 471 -72 605 -60 126 -150 199 -291 236 -71 19 -113 21 -399 24 -176 2
-360 0 -410 -5z m789 -96 c148 -38 230 -126 278 -302 20 -71 22 -107 25 -472
4 -318 1 -415 -11 -496 -28 -190 -91 -296 -209 -353 -98 -48 -155 -53 -567
-49 -414 4 -431 7 -526 71 -90 60 -142 155 -170 307 -20 114 -19 816 1 936 35
200 128 314 293 359 75 21 804 20 886 -1z"/>
<path d="M2979 3167 c-77 -18 -107 -40 -136 -103 -37 -81 -46 -210 -40 -579 5
-364 12 -402 76 -466 55 -56 96 -61 473 -57 l323 3 45 25 c35 20 51 38 75 85
l30 60 0 430 c0 429 0 430 -23 482 -28 60 -52 85 -107 110 -35 15 -78 18 -350
20 -219 1 -326 -1 -366 -10z m665 -78 c21 -6 48 -21 60 -34 41 -44 46 -104 46
-498 -1 -412 -6 -449 -63 -491 -27 -20 -42 -21 -351 -24 -242 -2 -332 0 -361
10 -58 19 -75 56 -87 191 -12 141 -4 698 12 749 15 50 47 85 90 97 49 13 605
14 654 0z"/>
<path d="M3204 2906 c-3 -8 -4 -61 -2 -117 4 -127 14 -139 119 -139 102 0 109
9 109 155 0 108 -1 115 -20 115 -18 0 -20 -7 -20 -79 0 -43 -3 -93 -6 -110
l-7 -32 -61 3 -61 3 -5 105 c-4 90 -8 105 -23 108 -9 2 -20 -3 -23 -12z"/>
<path d="M3207 2463 c-4 -3 -7 -15 -7 -25 0 -16 9 -18 84 -18 74 0 84 -2 89
-19 8 -33 -7 -40 -88 -43 l-80 -3 0 -75 c0 -70 1 -75 23 -78 21 -3 22 0 22 52
l0 56 34 0 c31 0 37 -5 66 -55 25 -43 37 -55 56 -55 30 0 30 3 -2 57 l-26 45
21 22 c28 30 29 98 1 126 -17 17 -33 20 -103 20 -46 0 -87 -3 -90 -7z"/>
<path d="M2275 1072 c-16 -10 -36 -26 -43 -34 -20 -25 -313 -762 -307 -775 6
-18 141 -18 152 -1 4 7 20 42 34 78 l27 65 115 3 c142 3 149 8 122 88 -10 31
-27 59 -36 65 -10 5 -44 9 -77 9 l-60 0 60 153 c33 83 64 156 68 160 4 5 63
-130 130 -300 68 -169 127 -314 133 -320 6 -8 35 -13 77 -13 45 0 69 4 72 13
3 6 -65 185 -151 396 -121 297 -162 389 -182 403 -38 29 -98 33 -134 10z"/>
<path d="M264 1066 c-73 -32 -98 -100 -92 -252 4 -122 25 -181 73 -202 17 -8
87 -12 204 -12 127 0 182 -4 195 -13 14 -10 16 -26 14 -97 l-3 -85 -240 -5
-240 -5 0 -70 0 -70 267 0 c303 0 301 0 346 86 21 40 23 54 20 169 -4 141 -16
177 -71 210 -28 18 -51 20 -205 20 -100 0 -181 4 -193 10 -16 9 -19 22 -19 84
0 49 4 77 13 85 9 7 92 12 233 13 l219 3 3 58 c2 35 -2 64 -9 73 -16 20 -469
20 -515 0z"/>
<path d="M1032 1068 c-16 -16 -16 -110 0 -126 9 -9 78 -12 248 -12 129 0 240
-4 246 -8 20 -13 34 -50 34 -87 0 -37 -14 -74 -34 -87 -6 -4 -117 -8 -246 -8
-170 0 -239 -3 -248 -12 -19 -19 -17 -452 2 -467 9 -7 38 -11 73 -9 l58 3 3
168 2 167 178 0 c249 1 285 12 332 105 20 41 24 64 24 135 0 47 -6 102 -13
123 -18 54 -66 105 -109 117 -55 15 -535 13 -550 -2z"/>
<path d="M3126 1069 c-66 -16 -103 -45 -133 -107 -28 -56 -28 -60 -31 -272 -4
-257 7 -319 69 -381 53 -53 100 -61 354 -57 l210 3 3 58 c2 35 -2 64 -9 73 -9
11 -52 14 -214 14 -112 0 -211 3 -220 6 -38 15 -45 55 -45 259 0 156 3 202 15
225 9 17 17 31 18 32 1 1 103 4 227 7 l225 6 3 58 c2 35 -2 64 -9 73 -9 11
-51 14 -218 13 -113 -1 -224 -5 -245 -10z"/>
<path d="M3817 1073 c-13 -12 -8 -120 7 -132 9 -8 100 -11 312 -9 l299 3 0 70
0 70 -306 3 c-168 1 -308 -1 -312 -5z"/>
<path d="M3839 711 c-28 -28 -29 -33 -29 -125 0 -177 34 -267 117 -308 46 -22
57 -23 278 -23 l230 0 0 85 0 85 -220 6 c-121 3 -221 6 -222 7 -15 12 -33 71
-33 107 l0 45 229 0 c185 0 231 3 240 14 7 9 11 38 9 73 l-3 58 -283 3 -283 2
-30 -29z"/>
</g>
</svg>
