<?xml version="1.0" standalone="no"?>
<!DOCTYPE svg PUBLIC "-//W3C//DTD SVG 20010904//EN"
 "http://www.w3.org/TR/2001/REC-SVG-20010904/DTD/svg10.dtd">
<svg version="1.0" xmlns="http://www.w3.org/2000/svg"
 width="300.000000pt" height="253.000000pt" viewBox="0 0 300.000000 253.000000"
 preserveAspectRatio="xMidYMid meet">
<metadata>
Created by potrace 1.10, written by Peter Selinger 2001-2011
</metadata>
<g transform="translate(0.000000,253.000000) scale(0.100000,-0.100000)"
fill="#000000" stroke="none">
<path d="M595 1980 c-3 -5 73 -150 170 -322 l176 -313 2 -140 2 -140 80 0 80
0 3 142 3 142 175 307 c96 168 173 313 170 321 -4 11 -24 13 -87 11 l-81 -3
-41 -75 c-40 -75 -199 -363 -215 -389 -5 -10 -17 4 -40 50 -37 75 -182 339
-212 387 -20 32 -21 32 -100 32 -43 0 -82 -4 -85 -10z m147 -42 c9 -7 64 -101
123 -208 59 -107 117 -206 130 -219 46 -47 59 -31 210 244 48 88 95 168 103
178 15 16 72 24 85 11 8 -8 0 -24 -172 -324 l-146 -255 -5 -130 -5 -130 -37
-3 c-45 -4 -46 -1 -50 153 l-3 110 -158 276 c-86 153 -157 284 -157 293 0 20
58 22 82 4z"/>
<path d="M1878 1976 c-102 -28 -152 -99 -168 -238 -21 -183 -7 -486 26 -549
30 -58 75 -98 127 -114 72 -21 442 -21 513 0 64 19 107 61 136 132 22 55 23
69 23 308 0 216 -2 257 -18 305 -25 74 -57 113 -114 141 -45 23 -60 24 -263
26 -152 2 -229 -1 -262 -11z m497 -45 c47 -19 83 -60 102 -115 15 -44 18 -87
18 -301 0 -249 0 -250 -26 -306 -19 -39 -38 -63 -65 -80 -38 -24 -42 -24 -284
-24 -240 0 -246 0 -283 24 -76 47 -97 132 -97 396 0 205 11 283 46 337 30 47
59 66 115 78 65 13 437 6 474 -9z"/>
<path d="M1902 1840 c-20 -13 -41 -38 -53 -65 -18 -42 -20 -64 -17 -269 3
-247 4 -250 72 -300 25 -20 41 -21 216 -21 207 0 214 2 264 69 20 26 21 41 21
264 0 263 -3 278 -64 319 -32 22 -43 23 -220 23 -169 0 -189 -2 -219 -20z
m435 -44 l28 -24 3 -224 c2 -143 -1 -236 -8 -260 -18 -61 -42 -68 -239 -68
-93 0 -181 4 -196 10 -48 18 -55 57 -55 295 0 226 6 260 47 284 11 6 97 11
205 11 183 0 187 0 215 -24z"/>
<path d="M2058 1693 c-3 -4 -2 -35 1 -68 l6 -60 49 -3 c59 -4 66 4 66 81 0 44
-3 57 -15 57 -11 0 -15 -13 -15 -54 0 -60 -8 -71 -46 -62 -24 6 -25 11 -23 58
2 31 -1 53 -8 55 -6 2 -13 0 -15 -4z"/>
<path d="M2057 1464 c-14 -14 6 -24 49 -24 32 0 44 -4 44 -15 0 -11 -12 -15
-45 -15 -43 0 -45 -1 -46 -30 -1 -16 -2 -36 -3 -42 -1 -7 6 -13 14 -13 10 0
14 8 12 28 -3 23 0 27 20 27 17 0 27 -8 35 -30 6 -16 18 -30 27 -30 20 0 20
10 -1 40 -12 17 -13 25 -5 28 18 6 15 69 -4 76 -21 8 -89 8 -97 0z"/>
<path d="M654 726 c-3 -8 -4 -25 -2 -38 l3 -23 165 0 165 0 3 38 3 37 -166 0
c-134 0 -167 -3 -171 -14z"/>
<path d="M1107 733 c-4 -3 -7 -100 -7 -215 l0 -208 40 0 40 0 0 215 0 215 -33
0 c-19 0 -37 -3 -40 -7z"/>
<path d="M1292 568 c5 -251 10 -258 204 -258 l114 0 0 35 0 35 -104 0 c-82 0
-108 3 -120 16 -13 13 -16 44 -16 180 l0 164 -41 0 -41 0 4 -172z"/>
<path d="M1722 704 l3 -35 165 -2 165 -2 3 38 3 37 -171 0 -171 0 3 -36z"/>
<path d="M2203 718 c-12 -13 -24 -41 -27 -63 -8 -46 6 -131 23 -148 7 -7 59
-14 124 -17 l112 -5 0 -50 0 -50 -132 -3 -133 -3 0 -34 0 -35 148 0 c186 0
187 0 187 126 0 74 -3 86 -23 106 -20 21 -32 23 -125 24 l-102 1 -3 46 c-2 33
1 47 10 48 7 0 64 0 126 -1 l112 -1 0 40 0 41 -138 0 c-131 0 -140 -1 -159
-22z"/>
<path d="M1890 562 c-168 -3 -166 -1 -161 -102 3 -77 22 -123 57 -139 14 -6
78 -11 149 -11 l125 0 0 45 0 45 -120 0 c-130 0 -140 4 -140 64 l0 26 130 0
130 0 0 34 c0 19 -6 35 -12 37 -7 2 -78 3 -158 1z"/>
<path d="M665 548 c-2 -7 -5 -64 -8 -125 l-3 -113 38 0 38 0 0 91 0 90 121 -2
c69 -1 125 3 131 9 5 5 8 20 6 33 -3 24 -3 24 -161 27 -121 2 -158 0 -162 -10z"/>
</g>
</svg>
